<svg width="88" height="17" viewBox="0 0 88 17" fill="none" xmlns="http://www.w3.org/2000/svg">
<path d="M0 0H5.58984C6.47461 0 7.25391 0.117187 7.92773 0.351562C8.60156 0.580078 9.16113 0.884766 9.60645 1.26562C10.0576 1.64062 10.3975 2.06836 10.626 2.54883C10.8545 3.02344 10.9688 3.50391 10.9688 3.99023C10.9688 4.37109 10.9307 4.74902 10.8545 5.12402C10.7783 5.49316 10.6436 5.84473 10.4502 6.17871C10.2568 6.50684 9.99023 6.80566 9.65039 7.0752C9.31641 7.33887 8.88867 7.55273 8.36719 7.7168C8.44336 7.96289 8.57227 8.26758 8.75391 8.63086C8.93555 8.99414 9.14648 9.38672 9.38672 9.80859C9.62695 10.2305 9.88477 10.667 10.1602 11.1182C10.4355 11.5693 10.7051 12.0059 10.9688 12.4277H6.46875C6.2168 11.8594 5.95898 11.2236 5.69531 10.5205C5.43164 9.81152 5.2207 9.04102 5.0625 8.20898H3.9375V12.4277H0V0ZM4.60547 6.24023C5.05078 6.24023 5.42578 6.18164 5.73047 6.06445C6.04102 5.94727 6.29297 5.79492 6.48633 5.60742C6.67969 5.41992 6.81738 5.20898 6.89941 4.97461C6.9873 4.74023 7.03125 4.50586 7.03125 4.27148C7.03125 3.80859 6.9668 3.43066 6.83789 3.1377C6.70898 2.84473 6.5332 2.61621 6.31055 2.45215C6.08789 2.28223 5.83008 2.16797 5.53711 2.10938C5.24414 2.05078 4.93066 2.02148 4.59668 2.02148H3.9375V6.24023H4.60547ZM21.4629 12.0498C20.9121 12.2314 20.3174 12.3809 19.6787 12.498C19.04 12.6211 18.375 12.6826 17.6836 12.6826C16.9277 12.6826 16.207 12.583 15.5215 12.3838C14.8359 12.1846 14.2324 11.874 13.7109 11.4521C13.1895 11.0303 12.7734 10.4971 12.4629 9.85254C12.1582 9.20215 12.0059 8.42871 12.0059 7.53223C12.0059 7.02246 12.085 6.55078 12.2432 6.11719C12.4014 5.67773 12.6152 5.2793 12.8848 4.92188C13.1602 4.56445 13.4795 4.24805 13.8428 3.97266C14.2119 3.69727 14.6045 3.46582 15.0205 3.27832C15.4424 3.09082 15.876 2.9502 16.3213 2.85645C16.7666 2.75684 17.2031 2.70703 17.6309 2.70703C18.3047 2.70703 18.8994 2.7832 19.415 2.93555C19.9307 3.08203 20.3584 3.28125 20.6982 3.5332C21.0439 3.78516 21.3047 4.07812 21.4805 4.41211C21.6562 4.74609 21.7441 5.10059 21.7441 5.47559C21.7441 5.93262 21.665 6.32227 21.5068 6.64453C21.3545 6.9668 21.1465 7.23926 20.8828 7.46191C20.625 7.67871 20.3232 7.85156 19.9775 7.98047C19.6377 8.10352 19.2773 8.2002 18.8965 8.27051C18.5156 8.33496 18.126 8.37598 17.7275 8.39355C17.335 8.41113 16.96 8.41992 16.6025 8.41992C16.4795 8.41992 16.3594 8.41992 16.2422 8.41992C16.1309 8.41406 16.0195 8.41113 15.9082 8.41113C15.9551 8.74512 16.0459 9.02637 16.1807 9.25488C16.3213 9.4834 16.4941 9.6709 16.6992 9.81738C16.9102 9.95801 17.1504 10.0605 17.4199 10.125C17.6953 10.1836 17.9883 10.2129 18.2988 10.2129C18.5332 10.2129 18.7822 10.1953 19.0459 10.1602C19.3154 10.125 19.585 10.0781 19.8545 10.0195C20.1299 9.95508 20.4023 9.88477 20.6719 9.80859C20.9473 9.72656 21.2109 9.6416 21.4629 9.55371V12.0498ZM15.8291 7.05762C15.9697 7.05176 16.1484 7.04297 16.3652 7.03125C16.5879 7.01953 16.8223 6.99902 17.0684 6.96973C17.3145 6.94043 17.5605 6.89941 17.8066 6.84668C18.0527 6.79395 18.2754 6.72656 18.4746 6.64453C18.6738 6.5625 18.835 6.45996 18.958 6.33691C19.0811 6.21387 19.1426 6.06445 19.1426 5.88867C19.1426 5.58984 19.0225 5.35254 18.7822 5.17676C18.5479 4.99512 18.2197 4.9043 17.7979 4.9043C17.6045 4.9043 17.3965 4.93359 17.1738 4.99219C16.9512 5.04492 16.7432 5.15039 16.5498 5.30859C16.3564 5.4668 16.1924 5.68652 16.0576 5.96777C15.9229 6.24902 15.8467 6.6123 15.8291 7.05762ZM24.082 2.94434H27.9492C27.8496 3.26074 27.7793 3.55664 27.7383 3.83203C27.7031 4.10156 27.6855 4.38574 27.6855 4.68457C27.8496 4.39746 28.0635 4.13379 28.3271 3.89355C28.5908 3.65332 28.8809 3.44531 29.1973 3.26953C29.5137 3.09375 29.8447 2.95605 30.1904 2.85645C30.542 2.75684 30.8848 2.70703 31.2188 2.70703C31.7109 2.70703 32.1885 2.80078 32.6514 2.98828C33.1143 3.17578 33.5215 3.46582 33.873 3.8584C34.2305 4.25098 34.5146 4.75488 34.7256 5.37012C34.9424 5.97949 35.0508 6.70605 35.0508 7.5498C35.0508 8.49902 34.9307 9.30176 34.6904 9.95801C34.4561 10.6084 34.1484 11.1357 33.7676 11.54C33.3867 11.9443 32.9561 12.2373 32.4756 12.4189C32.001 12.5947 31.5234 12.6826 31.043 12.6826C30.6973 12.6826 30.3604 12.6445 30.0322 12.5684C29.71 12.498 29.4082 12.3984 29.127 12.2695C28.8516 12.1348 28.6055 11.9795 28.3887 11.8037C28.1719 11.6221 28.002 11.4258 27.8789 11.2148V16.2246H24.082V2.94434ZM27.8789 7.70801C27.8789 8.18848 27.9316 8.58984 28.0371 8.91211C28.1426 9.23438 28.2803 9.49512 28.4502 9.69434C28.626 9.8877 28.8223 10.0283 29.0391 10.1162C29.2617 10.1982 29.4873 10.2393 29.7158 10.2393C29.9443 10.2393 30.167 10.1982 30.3838 10.1162C30.6006 10.0283 30.7939 9.8877 30.9639 9.69434C31.1338 9.49512 31.2686 9.23438 31.3682 8.91211C31.4736 8.58398 31.5264 8.17969 31.5264 7.69922C31.5264 7.22461 31.4736 6.82617 31.3682 6.50391C31.2686 6.17578 31.1338 5.91211 30.9639 5.71289C30.7939 5.51367 30.6006 5.37305 30.3838 5.29102C30.1729 5.20312 29.9531 5.15918 29.7246 5.15918C29.4961 5.15918 29.2705 5.20312 29.0479 5.29102C28.8311 5.37305 28.6348 5.51367 28.459 5.71289C28.2832 5.91211 28.1426 6.17578 28.0371 6.50391C27.9316 6.82617 27.8789 7.22754 27.8789 7.70801ZM41.9766 12.6826C41.2852 12.6826 40.6699 12.6182 40.1309 12.4893C39.5918 12.3604 39.1201 12.1816 38.7158 11.9531C38.3115 11.7246 37.9658 11.4551 37.6787 11.1445C37.3975 10.8281 37.1689 10.4854 36.9932 10.1162C36.8174 9.74707 36.6885 9.35742 36.6064 8.94727C36.5303 8.53711 36.4922 8.12109 36.4922 7.69922C36.4922 7.2832 36.5303 6.87305 36.6064 6.46875C36.6885 6.05859 36.8174 5.66895 36.9932 5.2998C37.1689 4.9248 37.3975 4.58203 37.6787 4.27148C37.96 3.95508 38.3027 3.68262 38.707 3.4541C39.1172 3.21973 39.5918 3.03809 40.1309 2.90918C40.6699 2.77441 41.2852 2.70703 41.9766 2.70703C42.668 2.70703 43.2832 2.77441 43.8223 2.90918C44.3613 3.03809 44.833 3.21973 45.2373 3.4541C45.6475 3.68262 45.9932 3.95508 46.2744 4.27148C46.5557 4.58203 46.7842 4.9248 46.96 5.2998C47.1357 5.66895 47.2617 6.05859 47.3379 6.46875C47.4199 6.87305 47.4609 7.2832 47.4609 7.69922C47.4609 8.12109 47.4199 8.53711 47.3379 8.94727C47.2617 9.35742 47.1357 9.74707 46.96 10.1162C46.7842 10.4854 46.5527 10.8281 46.2656 11.1445C45.9844 11.4551 45.6416 11.7246 45.2373 11.9531C44.833 12.1816 44.3613 12.3604 43.8223 12.4893C43.2832 12.6182 42.668 12.6826 41.9766 12.6826ZM40.2891 7.69922C40.2891 8.01562 40.3184 8.32617 40.377 8.63086C40.4355 8.92969 40.5293 9.19922 40.6582 9.43945C40.793 9.67383 40.9658 9.86426 41.1768 10.0107C41.3936 10.1514 41.6602 10.2217 41.9766 10.2217C42.293 10.2217 42.5566 10.1514 42.7676 10.0107C42.9844 9.86426 43.1572 9.67383 43.2861 9.43945C43.4209 9.19922 43.5176 8.92969 43.5762 8.63086C43.6348 8.32617 43.6641 8.01562 43.6641 7.69922C43.6641 7.38281 43.6348 7.0752 43.5762 6.77637C43.5176 6.47168 43.4209 6.20215 43.2861 5.96777C43.1572 5.72754 42.9844 5.53418 42.7676 5.3877C42.5566 5.24121 42.293 5.16797 41.9766 5.16797C41.6602 5.16797 41.3936 5.24121 41.1768 5.3877C40.9658 5.53418 40.793 5.72754 40.6582 5.96777C40.5293 6.20215 40.4355 6.47168 40.377 6.77637C40.3184 7.0752 40.2891 7.38281 40.2891 7.69922ZM49.5352 2.94434H53.1475C53.1357 3.09668 53.127 3.2666 53.1211 3.4541C53.1152 3.63574 53.1123 3.8291 53.1123 4.03418C53.1123 4.2334 53.1123 4.43555 53.1123 4.64062C53.1123 4.8457 53.1123 5.04199 53.1123 5.22949C53.2295 4.94238 53.3818 4.64941 53.5693 4.35059C53.7568 4.0459 53.9766 3.77344 54.2285 3.5332C54.4863 3.29297 54.7764 3.09668 55.0986 2.94434C55.4268 2.78613 55.793 2.70703 56.1973 2.70703C56.2734 2.70703 56.3555 2.71289 56.4434 2.72461C56.5371 2.73047 56.6279 2.74219 56.7158 2.75977C56.8037 2.77734 56.8857 2.80078 56.9619 2.83008C57.0439 2.85352 57.1113 2.88281 57.1641 2.91797L56.8564 6.53906C56.5928 6.43945 56.3145 6.36621 56.0215 6.31934C55.7285 6.2666 55.4736 6.24023 55.2568 6.24023C54.958 6.24023 54.6943 6.27832 54.4658 6.35449C54.2432 6.4248 54.0527 6.51855 53.8945 6.63574C53.7363 6.75293 53.6104 6.88184 53.5166 7.02246C53.4287 7.16309 53.3672 7.30078 53.332 7.43555V12.4277H49.5352V2.94434ZM63.4834 12.6826C62.9385 12.6826 62.417 12.6152 61.9189 12.4805C61.4209 12.3516 60.9814 12.1318 60.6006 11.8213C60.2256 11.5049 59.9238 11.0889 59.6953 10.5732C59.4727 10.0518 59.3613 9.4043 59.3613 8.63086V5.12402H57.6123V4.55273L61.752 0.0527344H63.1582V2.94434H65.9707C65.9004 3.2959 65.8359 3.65039 65.7773 4.00781C65.7246 4.36523 65.6953 4.7373 65.6895 5.12402H63.1582V8.5957C63.1582 8.80664 63.1729 9.01172 63.2021 9.21094C63.2373 9.4043 63.3047 9.57715 63.4043 9.72949C63.5039 9.87598 63.6475 9.99609 63.835 10.0898C64.0225 10.1777 64.2715 10.2217 64.582 10.2217C64.7812 10.2217 65.001 10.2041 65.2412 10.1689C65.4814 10.1279 65.7539 10.0547 66.0586 9.94922L66.2695 12.2256C65.9004 12.3604 65.4756 12.4688 64.9951 12.5508C64.5205 12.6387 64.0166 12.6826 63.4834 12.6826ZM70.3125 12.6826C69.9375 12.6826 69.5771 12.6299 69.2314 12.5244C68.8916 12.4189 68.5898 12.2578 68.3262 12.041C68.0625 11.8242 67.8516 11.5518 67.6934 11.2236C67.541 10.8896 67.4648 10.4971 67.4648 10.0459C67.4648 9.6123 67.5352 9.2373 67.6758 8.9209C67.8164 8.59863 68.0039 8.32324 68.2383 8.09473C68.4785 7.86621 68.7568 7.67871 69.0732 7.53223C69.3955 7.37988 69.7354 7.2627 70.0928 7.18066C70.4502 7.09277 70.8164 7.03418 71.1914 7.00488C71.5723 6.96973 71.9414 6.95215 72.2988 6.95215C72.5449 6.95215 72.7822 6.95801 73.0107 6.96973C73.2393 6.98145 73.4531 6.99609 73.6523 7.01367C73.6406 6.64453 73.5703 6.33984 73.4414 6.09961C73.3125 5.85352 73.1426 5.66016 72.9316 5.51953C72.7207 5.37305 72.4746 5.27051 72.1934 5.21191C71.9121 5.15332 71.6162 5.12402 71.3057 5.12402C71.0186 5.12402 70.7227 5.14453 70.418 5.18555C70.1191 5.2207 69.8262 5.26758 69.5391 5.32617C69.252 5.37891 68.9766 5.4375 68.7129 5.50195C68.4551 5.56641 68.2266 5.625 68.0273 5.67773V3.2168C68.3145 3.15234 68.6221 3.09082 68.9502 3.03223C69.2842 2.96777 69.6299 2.91211 69.9873 2.86523C70.3447 2.81836 70.708 2.78027 71.0771 2.75098C71.4521 2.72168 71.8213 2.70703 72.1846 2.70703C72.6357 2.70703 73.0781 2.73633 73.5117 2.79492C73.9512 2.84766 74.3643 2.93848 74.751 3.06738C75.1436 3.19629 75.5039 3.36914 75.832 3.58594C76.166 3.80273 76.4502 4.07227 76.6846 4.39453C76.9248 4.71094 77.1123 5.08594 77.2471 5.51953C77.3818 5.95312 77.4492 6.4541 77.4492 7.02246V12.4277H73.8281V10.8545C73.6875 11.1416 73.4912 11.3994 73.2393 11.6279C72.9873 11.8506 72.7031 12.041 72.3867 12.1992C72.0703 12.3574 71.7334 12.4775 71.376 12.5596C71.0186 12.6416 70.6641 12.6826 70.3125 12.6826ZM71.7979 10.6172C71.9619 10.6172 72.1494 10.5732 72.3604 10.4854C72.5771 10.3916 72.7793 10.251 72.9668 10.0635C73.1602 9.87598 73.3213 9.63867 73.4502 9.35156C73.585 9.06445 73.6523 8.72168 73.6523 8.32324H73.3623C73.0811 8.32324 72.791 8.35254 72.4922 8.41113C72.1992 8.46973 71.9297 8.55762 71.6836 8.6748C71.4375 8.79199 71.2354 8.93555 71.0771 9.10547C70.9189 9.27539 70.8398 9.47168 70.8398 9.69434C70.8398 9.87012 70.8691 10.0166 70.9277 10.1338C70.9863 10.251 71.0596 10.3477 71.1475 10.4238C71.2412 10.4941 71.3438 10.5439 71.4551 10.5732C71.5723 10.6025 71.6865 10.6172 71.7979 10.6172ZM79.998 2.94434H83.6104C83.5986 3.09668 83.5898 3.2666 83.584 3.4541C83.5781 3.63574 83.5752 3.8291 83.5752 4.03418C83.5752 4.2334 83.5752 4.43555 83.5752 4.64062C83.5752 4.8457 83.5752 5.04199 83.5752 5.22949C83.6924 4.94238 83.8447 4.64941 84.0322 4.35059C84.2197 4.0459 84.4395 3.77344 84.6914 3.5332C84.9492 3.29297 85.2393 3.09668 85.5615 2.94434C85.8896 2.78613 86.2559 2.70703 86.6602 2.70703C86.7363 2.70703 86.8184 2.71289 86.9062 2.72461C87 2.73047 87.0908 2.74219 87.1787 2.75977C87.2666 2.77734 87.3486 2.80078 87.4248 2.83008C87.5068 2.85352 87.5742 2.88281 87.627 2.91797L87.3193 6.53906C87.0557 6.43945 86.7773 6.36621 86.4844 6.31934C86.1914 6.2666 85.9365 6.24023 85.7197 6.24023C85.4209 6.24023 85.1572 6.27832 84.9287 6.35449C84.7061 6.4248 84.5156 6.51855 84.3574 6.63574C84.1992 6.75293 84.0732 6.88184 83.9795 7.02246C83.8916 7.16309 83.8301 7.30078 83.7949 7.43555V12.4277H79.998V2.94434Z" fill="#0C0C0C"/>
</svg>
